<svg width="20" height="37" viewBox="0 0 20 37" fill="none" xmlns="http://www.w3.org/2000/svg">
<path id="Vector" d="M11.8006 23.8684V12.9181C11.8006 12.4897 11.6305 12.0789 11.3276 11.7761C11.0247 11.4732 10.6139 11.303 10.1856 11.303C9.75721 11.303 9.3464 11.4732 9.04352 11.7761C8.74063 12.0789 8.57047 12.4897 8.57047 12.9181V23.8684C8.08226 24.1502 7.67632 24.5549 7.39299 25.0423C7.10965 25.5296 6.95878 26.0826 6.95538 26.6463C6.95538 27.503 7.2957 28.3246 7.90148 28.9304C8.50725 29.5362 9.32886 29.8765 10.1856 29.8765C11.0423 29.8765 11.8639 29.5362 12.4696 28.9304C13.0754 28.3246 13.4157 27.503 13.4157 26.6463C13.4123 26.0826 13.2615 25.5296 12.9781 25.0423C12.6948 24.5549 12.2888 24.1502 11.8006 23.8684ZM17.4535 20.186V8.07283C17.4535 6.14526 16.6877 4.29664 15.3247 2.93365C13.9617 1.57065 12.1131 0.804932 10.1856 0.804932C8.25799 0.804932 6.40937 1.57065 5.04638 2.93365C3.68338 4.29664 2.91766 6.14526 2.91766 8.07283V20.186C1.80138 21.4509 1.03467 22.9854 0.69338 24.6375C0.352087 26.2897 0.448033 28.0024 0.971728 29.6061C1.49542 31.2098 2.42872 32.649 3.6793 33.7813C4.92988 34.9137 6.45441 35.6999 8.10209 36.0623C8.78655 36.2183 9.48405 36.3102 10.1856 36.3369C12.0601 36.3456 13.8969 35.8105 15.4734 34.7963C17.0499 33.7822 18.2984 32.3325 19.0677 30.6231C19.8369 28.9137 20.0938 27.0178 19.8073 25.1653C19.5208 23.3128 18.7032 21.5832 17.4535 20.186ZM14.2233 31.6047C12.9382 32.7441 11.2532 33.3263 9.53885 33.2233C7.8245 33.1204 6.22128 32.3406 5.08188 31.0555C3.94247 29.7705 3.36021 28.0854 3.4632 26.3711C3.56618 24.6568 4.34596 23.0535 5.63101 21.9141C5.78361 21.7646 5.90502 21.5862 5.98819 21.3893C6.07136 21.1925 6.11465 20.9811 6.11553 20.7674V8.07283C6.11553 7.00196 6.54093 5.97495 7.29815 5.21773C8.05537 4.46051 9.08238 4.03511 10.1533 4.03511C11.2241 4.03511 12.2511 4.46051 13.0084 5.21773C13.7656 5.97495 14.191 7.00196 14.191 8.07283V20.8966C14.1919 21.1103 14.2351 21.3217 14.3183 21.5185C14.4015 21.7154 14.5229 21.8938 14.6755 22.0433C15.3357 22.6811 15.8524 23.4522 16.1911 24.3053C16.5299 25.1584 16.683 26.0739 16.6402 26.9908C16.5974 27.9078 16.3597 28.805 15.943 29.6229C15.5262 30.4407 14.94 31.1604 14.2233 31.7339V31.6047Z" fill="white"/>
</svg>
