<svg width="27" height="18" viewBox="0 0 27 18" fill="none" xmlns="http://www.w3.org/2000/svg">
<path id="Vector" d="M10.8779 1.12301L1.14451 10.8564C-0.0409617 12.0418 -0.305509 13.3983 0.350868 14.9256C1.00724 16.453 2.17649 17.218 3.85862 17.2205H23.1381C24.8227 17.2205 25.9932 16.4555 26.6496 14.9256C27.306 13.3958 27.0402 12.0393 25.8522 10.8564L16.1189 1.12301C15.7445 0.74865 15.339 0.467882 14.9022 0.280703C14.4655 0.093523 13.9975 -7.05719e-05 13.4984 -7.05719e-05C12.9992 -7.05719e-05 12.5313 0.093523 12.0945 0.280703C11.6578 0.467882 11.2522 0.74865 10.8779 1.12301Z" fill="#949494"/>
</svg>
